<svg width="310" height="284" viewBox="0 0 310 284" fill="none" xmlns="http://www.w3.org/2000/svg">
<g filter="url(#filter0_d_330_528)">
<path d="M156.64 61.0149C155.965 59.6617 154.035 59.6617 153.36 61.0149L129.026 109.806C128.772 110.315 128.769 110.913 129.017 111.425L134.122 121.939C134.443 122.6 134.338 123.388 133.856 123.942L126.314 132.616C125.74 133.276 124.779 133.439 124.02 133.004L103.748 121.39C102.905 120.907 102.585 119.851 103.019 118.982L104.987 115.035C105.323 114.362 105.213 113.551 104.71 112.992L83.1979 89.0662C81.9868 87.7192 79.764 88.758 80.0204 90.5511L89.7541 158.622C89.8832 159.525 90.6565 160.196 91.5686 160.196H126.766C127.86 160.196 128.703 161.147 128.653 162.239C128.634 162.657 128.623 163.078 128.623 163.501C128.623 163.924 128.634 164.345 128.653 164.764C128.703 165.856 127.86 166.807 126.766 166.807H93.0397C91.9241 166.807 91.0672 167.795 91.2252 168.899L95.9038 201.594C96.033 202.496 96.8063 203.167 97.7183 203.167H212.281C213.194 203.167 213.967 202.496 214.096 201.593L218.769 168.899C218.927 167.795 218.07 166.807 216.954 166.807H183.234C182.14 166.807 181.297 165.856 181.347 164.764C181.367 164.345 181.377 163.924 181.377 163.501C181.377 163.078 181.367 162.657 181.347 162.239C181.297 161.147 182.14 160.196 183.234 160.196H218.431C219.343 160.196 220.117 159.525 220.246 158.622L229.98 90.5511C230.236 88.758 228.013 87.7192 226.802 89.0662L205.29 112.992C204.787 113.551 204.677 114.362 205.013 115.035L206.981 118.982C207.415 119.851 207.095 120.907 206.252 121.39L185.981 133.003C185.221 133.438 184.26 133.275 183.686 132.614L176.278 124.083C175.803 123.536 175.695 122.761 176.002 122.105L181.002 111.416C181.239 110.909 181.231 110.322 180.981 109.821L156.64 61.0149Z" fill="url(#paint0_linear_330_528)"/>
</g>
<defs>
<filter id="filter0_d_330_528" x="0" y="-20" width="310" height="303.167" filterUnits="userSpaceOnUse" color-interpolation-filters="sRGB">
<feFlood flood-opacity="0" result="BackgroundImageFix"/>
<feColorMatrix in="SourceAlpha" type="matrix" values="0 0 0 0 0 0 0 0 0 0 0 0 0 0 0 0 0 0 127 0" result="hardAlpha"/>
<feOffset/>
<feComposite in2="hardAlpha" operator="out"/>
<feBlend mode="normal" in="SourceGraphic" in2="effect1_dropShadow_330_528" result="shape"/>
</filter>
<linearGradient id="paint0_linear_330_528" x1="154.887" y1="63.3053" x2="154.887" y2="199.295" gradientUnits="userSpaceOnUse">
<stop stop-color="white"/>
<stop offset="1" stop-color="#ACA1F8"/>
</linearGradient>
</defs>
</svg>
